<svg width="22" height="18" viewBox="0 0 22 18" fill="none" xmlns="http://www.w3.org/2000/svg">
<path d="M20.4453 6.98612C19.8883 6.05812 18.9813 4.8131 17.7273 3.6851L19.7053 1.70719C20.0963 1.31719 20.0963 0.684128 19.7053 0.293128C19.3143 -0.0978721 18.6823 -0.0978721 18.2913 0.293128L7.82831 10.7561L7.82629 10.7581L2.29129 16.2931C1.90029 16.6841 1.90029 17.3162 2.29129 17.7072C2.48629 17.9022 2.74229 18.0002 2.99829 18.0002C3.25429 18.0002 3.51029 17.9022 3.70529 17.7072L5.87231 15.5401C7.45131 16.5091 9.1723 17.0002 11.0003 17.0002C16.0693 17.0002 19.0923 13.2521 20.4463 11.0141C21.1883 9.77208 21.1883 8.23012 20.4453 6.98612ZM13.4983 9.00114C13.4983 10.3801 12.3763 11.5011 10.9983 11.5011C10.6803 11.5011 10.3733 11.4381 10.0873 11.3261L13.3223 8.0911C13.4353 8.3761 13.4983 8.68314 13.4983 9.00114ZM18.7313 9.98319C17.5983 11.8572 15.0873 15.0011 11.0003 15.0011C9.7103 15.0011 8.48531 14.6842 7.34131 14.0722L8.6113 12.8022C9.3183 13.2512 10.1353 13.5011 10.9983 13.5011C13.4793 13.5011 15.4983 11.4821 15.4983 9.00114C15.4983 8.13814 15.2483 7.32117 14.7993 6.61417L16.3113 5.10209C17.4253 6.08209 18.2373 7.19108 18.7303 8.01408C19.0883 8.61308 19.0883 9.38919 18.7313 9.98319ZM2.93829 12.9461C2.43029 12.3431 1.9653 11.6951 1.5563 11.0171C0.812304 9.77213 0.81229 8.2292 1.55429 6.9882C2.90829 4.7492 5.9303 1.00114 11.0003 1.00114C11.9783 1.00114 12.9253 1.14214 13.8963 1.43314C14.4253 1.59114 14.7263 2.14916 14.5673 2.67716C14.4083 3.20616 13.8523 3.50716 13.3223 3.34916C12.5403 3.11516 11.7803 3.00114 10.9993 3.00114C6.9113 3.00114 4.40031 6.14508 3.26831 8.01908C2.91231 8.61408 2.91229 9.38917 3.27029 9.98917C3.62329 10.5732 4.0253 11.1352 4.4653 11.6562C4.8213 12.0792 4.76831 12.7101 4.34631 13.0651C4.15831 13.2241 3.92929 13.3012 3.70129 13.3012C3.41829 13.3012 3.13629 13.1801 2.93829 12.9461ZM10.2953 4.56315C10.8383 4.48615 11.3523 4.85311 11.4363 5.39811C11.5203 5.94411 11.1463 6.45608 10.6013 6.54008C9.54832 6.70308 8.69932 7.55216 8.53631 8.60416C8.46031 9.09816 8.03432 9.45219 7.54932 9.45219C7.49832 9.45219 7.44729 9.4481 7.39529 9.4401C6.84929 9.3561 6.47529 8.84511 6.55929 8.29911C6.85829 6.36311 8.35932 4.86215 10.2953 4.56315Z" fill="#555558"/>
</svg>
