<svg viewBox="0 0 16 20" fill="none" xmlns="http://www.w3.org/2000/svg">
<path d="M15.5004 13.9859C14.8276 13.2074 13.5688 12.0363 13.5688 8.20002C13.5688 5.28627 11.6718 2.95377 9.11378 2.38152V1.60002C9.11378 0.937399 8.61514 0.400024 8.00019 0.400024C7.38525 0.400024 6.88661 0.937399 6.88661 1.60002V2.38152C4.32863 2.95377 2.43157 5.28627 2.43157 8.20002C2.43157 12.0363 1.17278 13.2074 0.500031 13.9859C0.291103 14.2278 0.198478 14.5169 0.200219 14.8C0.20405 15.415 0.6522 16 1.31798 16H14.6824C15.3482 16 15.7967 15.415 15.8002 14.8C15.8019 14.5169 15.7093 14.2274 15.5004 13.9859ZM2.5517 14.2C3.29061 13.1511 4.09847 11.4126 4.1023 8.22177C4.1023 8.21427 4.10021 8.20752 4.10021 8.20002C4.10021 5.88027 5.84615 4.00002 8.00019 4.00002C10.1542 4.00002 11.9002 5.88027 11.9002 8.20002C11.9002 8.20752 11.8981 8.21427 11.8981 8.22177C11.9019 11.413 12.7098 13.1515 13.4487 14.2H2.5517ZM8.00019 19.6C9.23008 19.6 10.2277 18.5256 10.2277 17.2H5.77267C5.77267 18.5256 6.77031 19.6 8.00019 19.6Z" fill="#333333"/>
</svg>
