<svg viewBox="0 0 56 56" fill="none" xmlns="http://www.w3.org/2000/svg">
<path d="M0 25.6306C0 15.76 0 10.8247 2.22172 7.19921C3.46489 5.17054 5.17054 3.46489 7.19921 2.22172C10.8247 0 15.76 0 25.6306 0H30.3694C40.24 0 45.1753 0 48.8008 2.22172C50.8295 3.46489 52.5351 5.17054 53.7783 7.19921C56 10.8247 56 15.76 56 25.6306V30.3694C56 40.24 56 45.1753 53.7783 48.8008C52.5351 50.8295 50.8295 52.5351 48.8008 53.7783C45.1753 56 40.24 56 30.3694 56H25.6306C15.76 56 10.8247 56 7.19921 53.7783C5.17054 52.5351 3.46489 50.8295 2.22172 48.8008C0 45.1753 0 40.24 0 30.3694V25.6306Z" fill="#FFBB5D"/>
<path d="M36.4209 44.0571V37.7693H20.252V44.0571L28.3364 51.2433L36.4209 44.0571Z" fill="#FFD7A3"/>
<path fill-rule="evenodd" clip-rule="evenodd" d="M51.6917 51.4749C50.8291 52.3553 49.8587 53.1296 48.8004 53.7782C45.1749 55.9999 40.2396 55.9999 30.369 55.9999H25.6302C15.7597 55.9999 10.8244 55.9999 7.19886 53.7782C6.40786 53.2934 5.66596 52.7384 4.98145 52.1213V50.4963C4.98145 48.8289 6.12852 47.3806 7.75164 46.9987L18.8671 44.3832C19.1829 44.3089 19.4609 44.1521 19.6849 43.9413L28.3367 49.447L37.3396 44.1953C37.4841 44.2766 37.6385 44.3437 37.8064 44.3831L48.9219 46.9986C50.5449 47.3804 51.692 48.8288 51.6917 50.4963V51.4749Z" fill="#8B63E7"/>
<path d="M20.252 37.7694V44.4036C30.4362 48.0729 36.4209 38.8896 36.4209 38.8896V37.7693H20.252V37.7694Z" fill="#F0C290"/>
<path d="M16.6592 17.1091L17.4419 34.3303C17.515 35.9391 18.3039 37.431 19.5922 38.3973L23.3063 41.1829C24.2393 41.8825 25.374 42.2609 26.5402 42.2609H30.1333C31.2995 42.2609 32.4342 41.8826 33.3672 41.1829L37.0813 38.3973C38.3696 37.4309 39.1585 35.9392 39.2316 34.3303L40.0143 17.1091C40.0142 17.1091 16.6592 17.1091 16.6592 17.1091Z" fill="#FFE1B2"/>
<path fill-rule="evenodd" clip-rule="evenodd" d="M30.3514 55.9996H26.3223L26.6526 51.2434H30.0211L30.3514 55.9996Z" fill="#5B5D6E"/>
<path d="M30.5822 49.4469H26.0908V51.1375C26.0908 51.6922 26.5404 52.1418 27.0951 52.1418H29.5778C30.1326 52.1418 30.5821 51.6922 30.5821 51.1375V49.4469H30.5822Z" fill="#515262"/>
<path d="M20.1262 42.0573L28.3369 49.4468C28.3369 49.4468 26.0374 50.6077 23.1999 52.9473C22.6145 53.4299 21.7291 53.2344 21.4152 52.5437L17.5576 44.0573L18.778 42.2268C19.0816 41.7709 19.7191 41.691 20.1262 42.0573Z" fill="white"/>
<path d="M36.5476 42.0573L28.3369 49.4468C28.3369 49.4468 30.6364 50.6077 33.4739 52.9473C34.0593 53.4299 34.9447 53.2344 35.2586 52.5437L39.1162 44.0573L37.8958 42.2268C37.5921 41.7709 36.9546 41.691 36.5476 42.0573Z" fill="white"/>
<path d="M33.7822 11.1579L34.6243 17.109C38.4684 17.8778 39.0224 23.9106 39.1022 25.6336C39.1167 25.9463 39.2165 26.2483 39.3861 26.5113L40.8528 28.7865C40.8528 28.7865 40.3508 25.025 42.6494 22.4986C42.6495 22.4986 43.4387 7.56475 33.7822 11.1579Z" fill="#4E1E30"/>
<path d="M41.7547 28.4035L40.7407 32.4599C40.6205 32.9407 40.1886 33.2779 39.6929 33.2779C39.1482 33.2779 38.6888 32.8724 38.6212 32.3319L38.1025 28.183C37.9637 27.0725 38.8295 26.0917 39.9487 26.0917H39.9495C41.1601 26.0918 42.0483 27.2292 41.7547 28.4035Z" fill="#FFE1B2"/>
<path d="M17.5208 9.54848L18.8494 10.4561C12.8422 14.8914 13.965 22.4987 13.965 22.4987C15.7615 24.2952 15.7615 28.7866 15.7615 28.7866L17.558 26.9901C17.558 26.9901 16.8647 21.8004 20.2528 19.8039C23.3968 17.9512 26.1477 18.9056 28.9549 18.9056C36.4779 18.9056 38.5833 16.0704 38.2184 12.6177C38.0295 10.8311 35.298 7.10963 28.3374 7.22798C25.5283 7.2757 20.253 8.12624 17.5208 9.54848Z" fill="#66273F"/>
<path d="M16.9967 18.1196C16.9967 18.1196 16.0423 14.358 18.8494 10.4562C12.8422 14.8914 13.965 22.4987 13.965 22.4987C15.7615 24.2952 15.7615 28.7867 15.7615 28.7867L17.558 26.9901C17.558 26.9901 16.8647 21.8004 20.2528 19.8039C23.3968 17.9512 26.1477 18.9057 28.9549 18.9057C30.1784 18.9057 31.2445 18.8238 32.1942 18.6833C26.4006 18.8775 22.9853 14.4889 16.9967 18.1196Z" fill="#4E1E30"/>
<path d="M14.9198 28.4035L15.9338 32.4599C16.054 32.9407 16.4859 33.2779 16.9816 33.2779C17.5263 33.2779 17.9857 32.8724 18.0532 32.3319L18.5719 28.183C18.7107 27.0725 17.8449 26.0917 16.7257 26.0917H16.7249C15.5144 26.0918 14.6262 27.2292 14.9198 28.4035Z" fill="#FFE1B2"/>
</svg>
