<svg width="22" height="22" viewBox="0 0 22 22" fill="none" xmlns="http://www.w3.org/2000/svg">
<path fill-rule="evenodd" clip-rule="evenodd" d="M4.0498 9.90005C4.0498 6.66918 6.66894 4.05005 9.8998 4.05005C13.1307 4.05005 15.7498 6.66918 15.7498 9.90005C15.7498 13.1309 13.1307 15.75 9.8998 15.75C6.66894 15.75 4.0498 13.1309 4.0498 9.90005ZM9.8998 2.55005C5.84051 2.55005 2.5498 5.84076 2.5498 9.90005C2.5498 13.9593 5.84051 17.25 9.8998 17.25C11.6593 17.25 13.2744 16.6318 14.5397 15.6006L18.444 19.5049C18.7369 19.7978 19.2117 19.7978 19.5046 19.5049C19.7975 19.212 19.7975 18.7371 19.5046 18.4442L15.6004 14.54C16.6315 13.2747 17.2498 11.6596 17.2498 9.90005C17.2498 5.84076 13.9591 2.55005 9.8998 2.55005Z" fill="#818386"/>
</svg>
