<svg viewBox="0 0 20 20" fill="none" xmlns="http://www.w3.org/2000/svg">
<path fill-rule="evenodd" clip-rule="evenodd" d="M0.771481 6.12596C-0.112796 7.57984 0.732014 9.08173 1.75069 9.6396L1.95976 9.75374C1.95656 9.83694 1.95443 9.92014 1.95336 10.0001C1.95443 10.0801 1.95656 10.1633 1.95976 10.2465L1.75069 10.3607C0.732014 10.9185 -0.112796 12.4204 0.771481 13.8743L1.95229 15.8135C2.7779 17.1693 4.38646 17.2301 5.36994 16.6914L5.5598 16.5869C5.79661 16.7405 6.04301 16.8834 6.29475 17.0157V17.052C6.29475 18.3554 7.32409 19.6003 8.81958 19.6003H11.1812C12.6767 19.6003 13.706 18.3554 13.706 17.052V17.0157C13.9578 16.8834 14.2042 16.7405 14.441 16.5869L14.6308 16.6914C15.6143 17.2301 17.2229 17.1693 18.0485 15.8135L19.2293 13.8743C20.1136 12.4204 19.2688 10.9185 18.2501 10.3607L18.041 10.2465C18.0442 10.1633 18.0464 10.0801 18.0474 10.0001C18.0464 9.92014 18.0442 9.83694 18.041 9.75374L18.2501 9.6396C19.2688 9.08173 20.1136 7.57984 19.2293 6.12596L18.0485 4.18674C17.2229 2.83099 15.6143 2.77125 14.6308 3.30886L14.441 3.41339C14.2042 3.25979 13.9578 3.11686 13.706 2.98459V2.94832C13.706 1.64484 12.6767 0.400024 11.1812 0.400024H8.81958C7.32409 0.400024 6.29475 1.64484 6.29475 2.94832V2.98459C6.04301 3.11686 5.79661 3.25979 5.5598 3.41339L5.36994 3.30886C4.38646 2.77125 2.7779 2.83099 1.95229 4.18674L0.771481 6.12596ZM5.75714 5.95316L4.34806 5.18088C4.13899 5.06675 3.88085 5.11795 3.77205 5.29715L2.59124 7.23637C2.48244 7.41557 2.5635 7.65238 2.77257 7.76758L4.26166 8.58252C4.14645 9.03586 4.08459 9.5116 4.08459 10.0001C4.08459 10.4887 4.14645 10.9644 4.26166 11.4178L2.77257 12.2327C2.5635 12.3479 2.48244 12.5847 2.59124 12.7639L3.77205 14.7031C3.88085 14.8823 4.13899 14.9335 4.34806 14.8194L5.75714 14.0471C6.48035 14.7778 7.39663 15.3218 8.42597 15.6002V17.052C8.42597 17.2813 8.60197 17.4669 8.81958 17.4669H11.1812C11.3988 17.4669 11.5748 17.2813 11.5748 17.052V15.6002C12.6042 15.3218 13.5204 14.7778 14.2436 14.0471L15.6527 14.8194C15.8618 14.9335 16.1199 14.8823 16.2287 14.7031L17.4095 12.7639C17.5183 12.5847 17.4373 12.3479 17.2282 12.2327L15.7391 11.4178C15.8543 10.9644 15.9162 10.4887 15.9162 10.0001C15.9162 9.5116 15.8543 9.03586 15.7391 8.58252L17.2282 7.76758C17.4373 7.65238 17.5183 7.41557 17.4095 7.23637L16.2287 5.29715C16.1199 5.11795 15.8618 5.06675 15.6527 5.18088L14.2436 5.95316C13.5204 5.22248 12.6042 4.67848 11.5748 4.40114V2.94832C11.5748 2.71899 11.3988 2.53338 11.1812 2.53338H8.81958C8.60197 2.53338 8.42597 2.71899 8.42597 2.94832V4.40114C7.39663 4.67848 6.48035 5.22248 5.75714 5.95316ZM9.99624 13.2002C11.7616 13.2002 13.192 11.7676 13.192 10.0001C13.192 8.23265 11.7616 6.8001 9.99624 6.8001C8.23088 6.8001 6.80047 8.23265 6.80047 10.0001C6.80047 11.7676 8.23088 13.2002 9.99624 13.2002ZM11.2004 10C11.2004 10.6624 10.6635 11.2 10.0004 11.2C9.33733 11.2 8.80039 10.6624 8.80039 10C8.80039 9.33762 9.33733 8.80002 10.0004 8.80002C10.6635 8.80002 11.2004 9.33762 11.2004 10Z" fill="black"/>
</svg>
